<?xml version="1.0" encoding="UTF-8"?>
<svg width="333px" height="88px" viewBox="0 0 333 88" version="1.1" xmlns="http://www.w3.org/2000/svg" xmlns:xlink="http://www.w3.org/1999/xlink">
    <!-- Generator: Sketch 50.2 (55047) - http://www.bohemiancoding.com/sketch -->
    <title>miime-beta-logo</title>
    <desc>Created with Sketch.</desc>
    <defs></defs>
    <g id="miime-beta-logo" stroke="none" stroke-width="1" fill="none" fill-rule="evenodd">
        <g id="miime-logo" transform="translate(0.000000, 1.000000)" fill-rule="nonzero">
            <g id="Group" transform="translate(109.000000, 12.000000)" fill="#000000">
                <path d="M222.3,46.4 C221.9,45.9 221.5,45.5 221,45.1 C220.5,44.8 219.9,44.6 219.3,44.6 C218.7,44.6 218,44.8 217.4,45.1 C216.8,45.4 216,45.8 215.2,46.2 C214.4,46.6 213.5,47 212.5,47.3 C211.5,47.6 210.3,47.8 208.8,47.8 C205.8,47.8 203.4,47.1 201.6,45.6 C199.8,44.1 198.9,42.1 198.9,39.7 L198.9,38.4 L216.1,38.4 C217.1,38.4 218,38.3 218.9,38.2 C219.8,38.1 220.7,37.8 221.4,37.3 C222.2,36.8 222.8,36.1 223.2,35 C223.7,34 223.9,32.6 223.9,30.8 C223.9,28.4 223.4,26.3 222.5,24.3 C221.6,22.3 220.3,20.7 218.7,19.3 C217.1,17.9 215.2,16.8 213.1,16 C211,15.2 208.8,14.8 206.4,14.8 C203.8,14.8 201.4,15.3 199.1,16.2 C196.8,17.1 194.9,18.3 193.2,19.9 C191.5,21.5 190.2,23.3 189.3,25.3 C188.3,27.4 187.9,29.5 187.9,31.8 L187.9,39 C187.9,41.6 188.4,44 189.4,46.1 C190.4,48.3 191.8,50.1 193.6,51.6 C195.4,53.1 197.6,54.3 200.1,55.1 C202.6,55.9 205.4,56.3 208.4,56.3 C210.7,56.3 212.7,56.1 214.6,55.6 C216.4,55.1 218,54.6 219.3,53.9 C220.6,53.2 221.6,52.4 222.3,51.6 C223,50.8 223.4,50 223.4,49.3 C223.4,48.9 223.3,48.4 223.1,47.9 C222.9,47.4 222.7,46.9 222.3,46.4 Z M198.9,29.6 C198.9,27.6 199.6,25.9 201.1,24.8 C202.6,23.6 204.3,23 206.2,23 C208.2,23 210,23.6 211.5,24.9 C213,26.1 213.7,27.8 213.7,29.7 C213.7,30.7 213.5,31.3 213.1,31.6 C212.7,31.9 212.1,32 211.2,32 L198.8,32 L198.8,29.6 L198.9,29.6 Z" id="Shape"></path>
                <path d="M158.8,14.5 C154.1,14.5 149.8,16.4 146.6,19.4 C143.4,16.4 139.1,14.5 134.4,14.5 C124.7,14.5 116.8,22.3 116.7,32 C116.7,36.4 116.7,43.2 116.7,52.1 C116.7,52.9 117.2,53.7 118.2,54.5 C119.2,55.2 120.5,55.6 122.1,55.6 C123.6,55.6 124.8,55.2 125.9,54.5 C127,53.8 127.5,53 127.5,52.1 L127.5,32.2 C127.5,28.5 130.5,25.5 134.2,25.5 C137.9,25.5 140.9,28.5 140.9,32.2 L140.9,52.2 C140.9,53.4 141.5,54.2 142.6,54.8 C143.8,55.3 145,55.6 146.3,55.6 C147.7,55.6 148.9,55.3 150.1,54.8 C151.3,54.3 151.8,53.4 151.8,52.2 L151.8,32.2 C151.8,28.5 154.8,25.5 158.5,25.5 C162.2,25.5 165.2,28.5 165.2,32.2 L165.2,52.1 C165.2,52.9 165.7,53.7 166.8,54.5 C167.9,55.2 169.1,55.6 170.6,55.6 C172.1,55.6 173.3,55.2 174.4,54.5 C175.5,53.8 176,53 176,52.1 L176,32.2 C176.4,22.4 168.5,14.5 158.8,14.5 Z" id="Shape"></path>
                <path d="M77,0.5 C75.3,0.5 73.9,1 72.7,2.1 C71.5,3.2 71,4.4 71,5.9 C71,7.3 71.6,8.6 72.7,9.6 C73.8,10.6 75.3,11.2 77,11.2 C78.6,11.2 80,10.7 81.2,9.6 C82.4,8.5 82.9,7.3 82.9,5.9 C82.9,4.4 82.3,3.2 81.2,2.1 C80,1 78.6,0.5 77,0.5 Z" id="Shape"></path>
                <path d="M80.9,16.3 C79.8,15.7 78.5,15.4 77,15.4 C75.4,15.4 74.1,15.7 73.1,16.3 C72.1,16.9 71.6,17.7 71.6,18.8 L71.6,52.3 C71.6,53.1 72.1,53.9 73.1,54.7 C74.1,55.4 75.4,55.8 77,55.8 C78.5,55.8 79.8,55.4 80.9,54.7 C82,54 82.5,53.2 82.5,52.3 L82.5,18.8 C82.5,17.8 82,16.9 80.9,16.3 Z" id="Shape"></path>
                <path d="M104,16.3 C102.9,15.7 101.6,15.4 100.1,15.4 C98.5,15.4 97.2,15.7 96.2,16.3 C95.2,16.9 94.7,17.7 94.7,18.8 L94.7,52.3 C94.7,53.1 95.2,53.9 96.2,54.7 C97.2,55.5 98.5,55.8 100.1,55.8 C101.6,55.8 102.9,55.4 104,54.7 C105.1,54 105.6,53.2 105.6,52.3 L105.6,18.8 C105.6,17.8 105,16.9 104,16.3 Z" id="Shape"></path>
                <path d="M100.1,0.5 C98.4,0.5 97,1 95.8,2.1 C94.6,3.2 94.1,4.4 94.1,5.9 C94.1,7.3 94.7,8.6 95.8,9.6 C96.9,10.6 98.4,11.2 100.1,11.2 C101.7,11.2 103.1,10.7 104.3,9.6 C105.5,8.5 106,7.3 106,5.9 C106,4.4 105.4,3.2 104.3,2.1 C103.2,1 101.7,0.5 100.1,0.5 Z" id="Shape"></path>
                <path d="M42.1,14.5 C37.4,14.5 33.1,16.4 29.9,19.4 C26.7,16.4 22.4,14.5 17.7,14.5 C8,14.5 0.1,22.3 0,32 C0,36.4 0,43.2 0,52.1 C0,52.9 0.5,53.7 1.5,54.5 C2.5,55.3 3.8,55.6 5.4,55.6 C6.9,55.6 8.1,55.2 9.2,54.5 C10.3,53.8 10.8,53 10.8,52.1 L10.8,32.2 C10.8,28.5 13.8,25.5 17.5,25.5 C21.2,25.5 24.2,28.5 24.2,32.2 L24.2,52.2 C24.2,53.4 24.8,54.2 25.9,54.8 C27.1,55.3 28.3,55.6 29.6,55.6 C31,55.6 32.2,55.3 33.4,54.8 C34.6,54.3 35.1,53.4 35.1,52.2 L35.1,32.2 C35.1,28.5 38.1,25.5 41.8,25.5 C45.5,25.5 48.5,28.5 48.5,32.2 L48.5,52.1 C48.5,52.9 49,53.7 50.1,54.5 C51.2,55.2 52.4,55.6 53.9,55.6 C55.4,55.6 56.6,55.2 57.7,54.5 C58.8,53.8 59.3,53 59.3,52.1 L59.3,32.2 C59.7,22.4 51.8,14.5 42.1,14.5 Z" id="Shape"></path>
            </g>
            <g id="symbol-copy" fill="#FCCC04">
                <path d="M66.4,40.5 L84,40.5 C85.9,40.5 87.5,42.1 87.5,44 C87.5,68 68,87.5 44,87.5 C25.3,87.5 8.9,75.6 2.9,58.2 C2.3,56.4 3.2,54.4 5.1,53.8 C6.9,53.2 8.9,54.1 9.5,56 C14.5,70.6 28.3,80.6 44,80.6 C63,80.6 78.6,66.1 80.3,47.6 L64.1,47.6 C63.9,47.6 63.7,47.6 63.5,47.6 C63,47.5 62.5,47.3 62.1,47 C61.7,46.7 61.3,46.3 61.1,45.9 C61,45.7 60.9,45.5 60.8,45.3 L56.7,34.9 L47.4,60.3 C46.3,63.4 42,63.4 40.8,60.3 L31.5,34.9 L27.4,45.3 C27.3,45.5 27.2,45.7 27.1,45.9 C26.8,46.3 26.5,46.7 26.1,47 C25.7,47.3 25.2,47.5 24.7,47.6 C24.5,47.6 24.3,47.7 24.1,47.6 L4,47.6 C2.1,47.6 0.5,46 0.5,44.1 C0.5,20 20,0.5 44,0.5 C62.7,0.5 79.1,12.4 85.1,29.8 C85.7,31.6 84.8,33.6 82.9,34.2 C81.1,34.8 79.1,33.9 78.5,32 C73.5,17.5 59.7,7.5 44,7.5 C25,7.5 9.4,22 7.7,40.5 L21.7,40.5 L28.3,23.7 C29.5,20.7 33.7,20.8 34.8,23.8 L44,48.9 L53.2,23.8 C54.3,20.8 58.6,20.7 59.7,23.7 L66.4,40.5 Z" id="Shape"></path>
            </g>
        </g>
        <path d="M278,3.25 C278,2.916665 278.145832,2.66250087 278.4375,2.4875 C278.729168,2.31249912 279.058332,2.225 279.425,2.225 L284.25,2.225 C284.900003,2.225 285.529164,2.28749937 286.1375,2.4125 C286.745836,2.53750062 287.279164,2.76249837 287.7375,3.0875 C288.195836,3.41250162 288.566665,3.86249712 288.85,4.4375 C289.133335,5.01250287 289.275,5.74166225 289.275,6.625 C289.275,7.6583385 289.087502,8.50833 288.7125,9.175 C288.337498,9.84167 287.81667,10.3166652 287.15,10.6 C287.533335,10.7500007 287.883332,10.9291656 288.2,11.1375 C288.516668,11.3458344 288.787499,11.6083317 289.0125,11.925 C289.237501,12.2416683 289.412499,12.6249977 289.5375,13.075 C289.662501,13.5250023 289.725,14.0583303 289.725,14.675 L289.725,15.2 C289.725,16.1833382 289.595835,17.00833 289.3375,17.675 C289.079165,18.34167 288.725002,18.8874979 288.275,19.3125 C287.824998,19.7375021 287.295836,20.0416657 286.6875,20.225 C286.079164,20.4083342 285.425004,20.5 284.725,20.5 L279.425,20.5 C278.991665,20.5 278.645835,20.400001 278.3875,20.2 C278.129165,19.999999 278,19.766668 278,19.5 L278,3.25 Z M284.05,17.65 C284.81667,17.65 285.412498,17.4333355 285.8375,17 C286.262502,16.5666645 286.475,15.8750048 286.475,14.925 L286.475,14.525 C286.475,13.5416618 286.262502,12.8541686 285.8375,12.4625 C285.412498,12.0708314 284.81667,11.875 284.05,11.875 L281.225,11.875 L281.225,17.65 L284.05,17.65 Z M281.225,9.325 L284.025,9.325 C284.708337,9.325 285.212498,9.125002 285.5375,8.725 C285.862502,8.324998 286.025,7.8083365 286.025,7.175 C286.025,6.52499675 285.845835,6.01250187 285.4875,5.6375 C285.129165,5.26249813 284.633336,5.075 284,5.075 L281.225,5.075 L281.225,9.325 Z M296.169565,10.075 L299.969565,10.075 C300.3029,10.075 300.557064,10.208332 300.732065,10.475 C300.907066,10.741668 300.994565,11.041665 300.994565,11.375 C300.994565,11.6583347 300.911233,11.9374986 300.744565,12.2125 C300.577898,12.4875014 300.319567,12.625 299.969565,12.625 L296.169565,12.625 L296.169565,17.65 L303.244565,17.65 C303.5779,17.65 303.832064,17.7958319 304.007065,18.0875 C304.182066,18.3791681 304.269565,18.7166647 304.269565,19.1 C304.269565,19.433335 304.186233,19.7499985 304.019565,20.05 C303.852898,20.3500015 303.594567,20.5 303.244565,20.5 L294.344565,20.5 C293.977897,20.5 293.648733,20.4125009 293.357065,20.2375 C293.065397,20.0624991 292.919565,19.808335 292.919565,19.475 L292.919565,3.25 C292.919565,2.916665 293.065397,2.66250087 293.357065,2.4875 C293.648733,2.31249912 293.977897,2.225 294.344565,2.225 L303.244565,2.225 C303.594567,2.225 303.852898,2.3749985 304.019565,2.675 C304.186233,2.9750015 304.269565,3.291665 304.269565,3.625 C304.269565,4.00833525 304.182066,4.34583188 304.007065,4.6375 C303.832064,4.92916812 303.5779,5.075 303.244565,5.075 L296.169565,5.075 L296.169565,10.075 Z M317.43913,2.225 C317.789132,2.225 318.047463,2.37916512 318.21413,2.6875 C318.380798,2.99583487 318.46413,3.32499825 318.46413,3.675 C318.46413,4.05833525 318.376631,4.3999985 318.20163,4.7 C318.02663,5.0000015 317.772465,5.15 317.43913,5.15 L313.78913,5.15 L313.78913,19.475 C313.78913,19.808335 313.618299,20.0624991 313.27663,20.2375 C312.934962,20.4125009 312.564132,20.5 312.16413,20.5 C311.747462,20.5 311.372465,20.4125009 311.03913,20.2375 C310.705795,20.0624991 310.53913,19.808335 310.53913,19.475 L310.53913,5.15 L306.86413,5.15 C306.530795,5.15 306.276631,5.00416812 306.10163,4.7125 C305.92663,4.42083187 305.83913,4.075002 305.83913,3.675 C305.83913,3.32499825 305.922463,2.99583487 306.08913,2.6875 C306.255798,2.37916512 306.514129,2.225 306.86413,2.225 L317.43913,2.225 Z M320.433696,20.5 C320.217028,20.5 319.987863,20.466667 319.746196,20.4 C319.504528,20.333333 319.283697,20.2416672 319.083696,20.125 C318.883695,20.0083328 318.71703,19.8666675 318.583696,19.7 C318.450362,19.5333325 318.383696,19.350001 318.383696,19.15 C318.383696,19.1166665 318.400362,19.033334 318.433696,18.9 L323.258696,3.175 C323.375363,2.79166475 323.633694,2.51250087 324.033696,2.3375 C324.433698,2.16249913 324.867027,2.075 325.333696,2.075 C325.817031,2.075 326.258694,2.16249913 326.658696,2.3375 C327.058698,2.51250087 327.317028,2.79166475 327.433696,3.175 L332.258696,18.9 C332.292029,19.033334 332.308696,19.1166665 332.308696,19.15 C332.308696,19.350001 332.24203,19.5291659 332.108696,19.6875 C331.975362,19.8458341 331.808697,19.9874994 331.608696,20.1125 C331.408695,20.2375006 331.187863,20.333333 330.946196,20.4 C330.704528,20.466667 330.475363,20.5 330.258696,20.5 C329.975361,20.5 329.737863,20.4500005 329.546196,20.35 C329.354528,20.2499995 329.225363,20.0833345 329.158696,19.85 L328.208696,16.525 L322.483696,16.525 L321.533696,19.85 C321.467029,20.0833345 321.337863,20.2499995 321.146196,20.35 C320.954528,20.4500005 320.71703,20.5 320.433696,20.5 Z M327.508696,13.975 L325.333696,6.3 L323.158696,13.975 L327.508696,13.975 Z" id="BETA" fill="#8C8E99"></path>
    </g>
</svg>